HIERARCHY
ROOT Root
{
  OFFSET 0.0 0.0 0.0
  CHANNELS 6 Xposition Yposition Zposition Zrotation Yrotation Xrotation
  JOINT Hips
  {
    OFFSET 0.0 100.0 0.0
    CHANNELS 6 Xposition Yposition Zposition Zrotation Yrotation Xrotation
    JOINT Spine1
    {
      OFFSET 5.003913 -0.037094 -0.013727
      CHANNELS 3 Zrotation Yrotation Xrotation
      JOINT Spine2
      {
        OFFSET 7.125363 -1e-06 0.0
        CHANNELS 3 Zrotation Yrotation Xrotation
        JOINT Chest
        {
          OFFSET 7.594027 1e-06 0.0
          CHANNELS 3 Zrotation Yrotation Xrotation
          JOINT Neck1
          {
            OFFSET 26.313086 -0.460272 -0.181672
            CHANNELS 3 Zrotation Yrotation Xrotation
            JOINT Neck2
            {
              OFFSET 8.045911 0.0 0.0
              CHANNELS 3 Zrotation Yrotation Xrotation
              JOINT Head
              {
                OFFSET 6.432774 0.0 0.0
                CHANNELS 3 Zrotation Yrotation Xrotation
                JOINT HeadEnd
                {
                  OFFSET 16.169773 0.06451 0.00362
                  CHANNELS 3 Zrotation Yrotation Xrotation
                }
                JOINT Jaw
                {
                  OFFSET 0.108741 3.12938 0.002639
                  CHANNELS 3 Zrotation Yrotation Xrotation
                }
                JOINT LeftEye
                {
                  OFFSET 4.45173 8.166359 3.206392
                  CHANNELS 3 Zrotation Yrotation Xrotation
                }
                JOINT RightEye
                {
                  OFFSET 4.436895 8.135758 -3.222429
                  CHANNELS 3 Zrotation Yrotation Xrotation
                }
              }
            }
          }
          JOINT LeftShoulder
          {
            OFFSET 23.218927 5.195579 1.621656
            CHANNELS 3 Zrotation Yrotation Xrotation
            JOINT LeftArm
            {
              OFFSET 15.902118 2e-06 -2e-06
              CHANNELS 3 Zrotation Yrotation Xrotation
              JOINT LeftForeArm
              {
                OFFSET 28.739307 0.0 -1e-06
                CHANNELS 3 Zrotation Yrotation Xrotation
                JOINT LeftHand
                {
                  OFFSET 27.093981 -4e-06 0.0
                  CHANNELS 3 Zrotation Yrotation Xrotation
                  JOINT LeftHandThumb1
                  {
                    OFFSET 2.276781 3.380274 0.83384
                    CHANNELS 3 Zrotation Yrotation Xrotation
                    JOINT LeftHandThumb2
                    {
                      OFFSET 4.705309 -1e-06 -1e-06
                      CHANNELS 3 Zrotation Yrotation Xrotation
                      JOINT LeftHandThumb3
                      {
                        OFFSET 2.798515 0.0 3e-06
                        CHANNELS 3 Zrotation Yrotation Xrotation
                        JOINT LeftHandThumbEnd
                        {
                          OFFSET 3.180793 4e-06 -4e-06
                          CHANNELS 3 Zrotation Yrotation Xrotation
                        }
                      }
                    }
                  }
                  JOINT LeftHandIndex1
                  {
                    OFFSET 3.247786 2.352677 0.137192
                    CHANNELS 3 Zrotation Yrotation Xrotation
                    JOINT LeftHandIndex2
                    {
                      OFFSET 6.367095 1e-06 0.0
                      CHANNELS 3 Zrotation Yrotation Xrotation
                      JOINT LeftHandIndex3
                      {
                        OFFSET 3.662364 0.0 0.0
                        CHANNELS 3 Zrotation Yrotation Xrotation
                        JOINT LeftHandIndex4
                        {
                          OFFSET 2.329242 4e-06 -4e-06
                          CHANNELS 3 Zrotation Yrotation Xrotation
                          JOINT LeftHandIndexEnd
                          {
                            OFFSET 2.767823 1e-06 0.0
                            CHANNELS 3 Zrotation Yrotation Xrotation
                          }
                        }
                      }
                    }
                  }
                  JOINT LeftHandMiddle1
                  {
                    OFFSET 3.163612 0.945023 -0.406112
                    CHANNELS 3 Zrotation Yrotation Xrotation
                    JOINT LeftHandMiddle2
                    {
                      OFFSET 6.276789 3e-06 0.0
                      CHANNELS 3 Zrotation Yrotation Xrotation
                      JOINT LeftHandMiddle3
                      {
                        OFFSET 4.35652 -1e-06 4e-06
                        CHANNELS 3 Zrotation Yrotation Xrotation
                        JOINT LeftHandMiddle4
                        {
                          OFFSET 2.996877 0.0 8e-06
                          CHANNELS 3 Zrotation Yrotation Xrotation
                          JOINT LeftHandMiddleEnd
                          {
                            OFFSET 2.323256 3e-06 -4e-06
                            CHANNELS 3 Zrotation Yrotation Xrotation
                          }
                        }
                      }
                    }
                  }
                  JOINT LeftHandRing1
                  {
                    OFFSET 2.882606 -0.309162 0.107445
                    CHANNELS 3 Zrotation Yrotation Xrotation
                    JOINT LeftHandRing2
                    {
                      OFFSET 6.033198 0.0 4e-06
                      CHANNELS 3 Zrotation Yrotation Xrotation
                      JOINT LeftHandRing3
                      {
                        OFFSET 4.350578 3e-06 0.0
                        CHANNELS 3 Zrotation Yrotation Xrotation
                        JOINT LeftHandRing4
                        {
                          OFFSET 2.651321 2e-06 -7e-06
                          CHANNELS 3 Zrotation Yrotation Xrotation
                          JOINT LeftHandRingEnd
                          {
                            OFFSET 1.937663 1e-06 -4e-06
                            CHANNELS 3 Zrotation Yrotation Xrotation
                          }
                        }
                      }
                    }
                  }
                  JOINT LeftHandPinky1
                  {
                    OFFSET 2.865315 -1.525436 0.575687
                    CHANNELS 3 Zrotation Yrotation Xrotation
                    JOINT LeftHandPinky2
                    {
                      OFFSET 5.54936 1e-06 -8e-06
                      CHANNELS 3 Zrotation Yrotation Xrotation
                      JOINT LeftHandPinky3
                      {
                        OFFSET 3.070974 0.0 -4e-06
                        CHANNELS 3 Zrotation Yrotation Xrotation
                        JOINT LeftHandPinky4
                        {
                          OFFSET 1.549672 1e-06 0.0
                          CHANNELS 3 Zrotation Yrotation Xrotation
                          JOINT LeftHandPinkyEnd
                          {
                            OFFSET 1.952123 0.0 0.0
                            CHANNELS 3 Zrotation Yrotation Xrotation
                          }
                        }
                      }
                    }
                  }
                }
              }
            }
          }
          JOINT RightShoulder
          {
            OFFSET 23.161716 5.296122 -1.380114
            CHANNELS 3 Zrotation Yrotation Xrotation
            JOINT RightArm
            {
              OFFSET -16.027195 -2e-06 1.1e-05
              CHANNELS 3 Zrotation Yrotation Xrotation
              JOINT RightForeArm
              {
                OFFSET -28.736639 4e-06 2e-06
                CHANNELS 3 Zrotation Yrotation Xrotation
                JOINT RightHand
                {
                  OFFSET -27.133619 6e-06 0.0
                  CHANNELS 3 Zrotation Yrotation Xrotation
                  JOINT RightHandThumb1
                  {
                    OFFSET -2.274328 -3.351035 -0.83067
                    CHANNELS 3 Zrotation Yrotation Xrotation
                    JOINT RightHandThumb2
                    {
                      OFFSET -4.703594 -3e-06 2e-06
                      CHANNELS 3 Zrotation Yrotation Xrotation
                      JOINT RightHandThumb3
                      {
                        OFFSET -2.794935 -4e-06 -3e-06
                        CHANNELS 3 Zrotation Yrotation Xrotation
                        JOINT RightHandThumbEnd
                        {
                          OFFSET -3.183852 4e-06 1e-06
                          CHANNELS 3 Zrotation Yrotation Xrotation
                        }
                      }
                    }
                  }
                  JOINT RightHandIndex1
                  {
                    OFFSET -3.253496 -2.33755 -0.127667
                    CHANNELS 3 Zrotation Yrotation Xrotation
                    JOINT RightHandIndex2
                    {
                      OFFSET -6.344434 0.0 0.0
                      CHANNELS 3 Zrotation Yrotation Xrotation
                      JOINT RightHandIndex3
                      {
                        OFFSET -3.654871 0.0 -8e-06
                        CHANNELS 3 Zrotation Yrotation Xrotation
                        JOINT RightHandIndex4
                        {
                          OFFSET -2.327586 -1e-06 0.0
                          CHANNELS 3 Zrotation Yrotation Xrotation
                          JOINT RightHandIndexEnd
                          {
                            OFFSET -2.770001 3e-06 8e-06
                            CHANNELS 3 Zrotation Yrotation Xrotation
                          }
                        }
                      }
                    }
                  }
                  JOINT RightHandMiddle1
                  {
                    OFFSET -3.168223 -0.944764 0.411762
                    CHANNELS 3 Zrotation Yrotation Xrotation
                    JOINT RightHandMiddle2
                    {
                      OFFSET -6.266691 -1e-06 -4e-06
                      CHANNELS 3 Zrotation Yrotation Xrotation
                      JOINT RightHandMiddle3
                      {
                        OFFSET -4.348901 0.0 0.0
                        CHANNELS 3 Zrotation Yrotation Xrotation
                        JOINT RightHandMiddle4
                        {
                          OFFSET -3.00024 2e-06 -4e-06
                          CHANNELS 3 Zrotation Yrotation Xrotation
                          JOINT RightHandMiddleEnd
                          {
                            OFFSET -2.321477 -4e-06 -4e-06
                            CHANNELS 3 Zrotation Yrotation Xrotation
                          }
                        }
                      }
                    }
                  }
                  JOINT RightHandRing1
                  {
                    OFFSET -2.885654 0.293261 -0.119232
                    CHANNELS 3 Zrotation Yrotation Xrotation
                    JOINT RightHandRing2
                    {
                      OFFSET -6.032835 -1e-06 -4e-06
                      CHANNELS 3 Zrotation Yrotation Xrotation
                      JOINT RightHandRing3
                      {
                        OFFSET -4.33881 0.0 -4e-06
                        CHANNELS 3 Zrotation Yrotation Xrotation
                        JOINT RightHandRing4
                        {
                          OFFSET -2.654903 -4e-06 -4e-06
                          CHANNELS 3 Zrotation Yrotation Xrotation
                          JOINT RightHandRingEnd
                          {
                            OFFSET -1.935122 0.0 4e-06
                            CHANNELS 3 Zrotation Yrotation Xrotation
                          }
                        }
                      }
                    }
                  }
                  JOINT RightHandPinky1
                  {
                    OFFSET -2.866241 1.503904 -0.60527
                    CHANNELS 3 Zrotation Yrotation Xrotation
                    JOINT RightHandPinky2
                    {
                      OFFSET -5.553177 -2e-06 0.0
                      CHANNELS 3 Zrotation Yrotation Xrotation
                      JOINT RightHandPinky3
                      {
                        OFFSET -3.062664 -1e-06 -4e-06
                        CHANNELS 3 Zrotation Yrotation Xrotation
                        JOINT RightHandPinky4
                        {
                          OFFSET -1.546529 2e-06 4e-06
                          CHANNELS 3 Zrotation Yrotation Xrotation
                          JOINT RightHandPinkyEnd
                          {
                            OFFSET -1.952341 0.0 -4e-06
                            CHANNELS 3 Zrotation Yrotation Xrotation
                          }
                        }
                      }
                    }
                  }
                }
              }
            }
          }
        }
      }
    }
    JOINT LeftLeg
    {
      OFFSET -8.443107 2.567604 10.043214
      CHANNELS 3 Zrotation Yrotation Xrotation
      JOINT LeftShin
      {
        OFFSET 43.229198 1e-06 -1e-06
        CHANNELS 3 Zrotation Yrotation Xrotation
        JOINT LeftFoot
        {
          OFFSET 42.298611 1e-06 1e-06
          CHANNELS 3 Zrotation Yrotation Xrotation
          JOINT LeftToeBase
          {
            OFFSET 14.165858 1e-06 0.0
            CHANNELS 3 Zrotation Yrotation Xrotation
            JOINT LeftToeEnd
            {
              OFFSET 6.7141 -0.234461 0.0
              CHANNELS 3 Zrotation Yrotation Xrotation
            }
          }
        }
      }
    }
    JOINT RightLeg
    {
      OFFSET -8.303923 2.592729 -10.047278
      CHANNELS 3 Zrotation Yrotation Xrotation
      JOINT RightShin
      {
        OFFSET -43.369682 0.0 1e-06
        CHANNELS 3 Zrotation Yrotation Xrotation
        JOINT RightFoot
        {
          OFFSET -42.260784 4e-06 2e-06
          CHANNELS 3 Zrotation Yrotation Xrotation
          JOINT RightToeBase
          {
            OFFSET -14.222245 -2e-06 -1e-06
            CHANNELS 3 Zrotation Yrotation Xrotation
            JOINT RightToeEnd
            {
              OFFSET -6.660062 0.232574 -2e-06
              CHANNELS 3 Zrotation Yrotation Xrotation
            }
          }
        }
      }
    }
  }
}
MOTION
Frames: 5
Frame Time: 0.03333333333333333
0.0 0.0 0.0 0.0 -0.0 0.0 -1.215027 99.870285 -1.882223 89.50972 1.986586 90.313072 -3.405477 0.16244 -0.245073 -12.295528 -0.486309 -0.492399 16.661535 0.603644 -2.560651 15.622303 -4.823459 2.804505 -2.535386 -0.846686 -1.336899 -32.743313 1.228888 -3.446755 5e-06 -0.0 -0.0 0.019846 0.033485 0.007913 0.143187 0.017005 -0.001141 0.140617 0.047012 0.02433 -121.56163 -68.108147 140.00058 36.998184 -50.684052 22.507175 43.472565 1.009262 0.294163 -10.534023 7.140466 12.519031 17.636637 -26.322733 52.411186 -19.466661 -14.395596 29.410395 -1e-06 -8.774822 -2e-06 15.714447 -17.932018 6.190662 -0.609776 -1.795654 -3.889326 -4.80709 -11.046813 -2.937851 4e-06 -20.976019 -1e-06 -5.019971 -25.03356 -4.031882 5e-06 -1e-06 1e-06 -10.634534 -5.686971 -3.565589 10.573274 -17.922951 -3.113899 4e-06 -13.821211 1e-06 -0.501778 -31.181505 -4.027017 -11.194335 -59.342316 7.066514 -13.982713 -7.150199 -2.875042 13.772727 -8.401491 -3.218244 0.347735 -34.211555 0.771653 -0.963031 -17.73337 2.62102 -1e-06 1e-06 0.0 -17.34642 -20.095219 -4.201783 21.757557 -1.638375 3.866431 1e-06 -6.338825 2e-06 -1.697587 -22.591749 -6.194009 -1e-06 -4e-06 -1e-06 97.812584 -80.719368 96.348999 35.313232 -72.52906 5.315479 39.985317 -0.148714 0.161988 -3.138234 1.248418 20.562439 22.182114 -20.375898 49.933327 -16.701807 -16.74353 28.476536 -3e-06 -12.6906 -3e-06 16.182627 -18.007185 2.570313 -0.10592 -1.513855 -4.275882 -5.039042 -5.612873 -2.953559 2e-06 -11.020523 0.0 -6.111299 -15.895334 -3.84047 0.0 1e-06 1e-06 -10.283368 -5.680288 -4.341839 11.028291 -11.302402 -2.372631 -1.384269 -14.238577 -6.32012 -0.625441 -26.924183 -3.8276 -4.2599 -50.0373 -4.140803 -13.708524 -7.363475 -3.720942 18.141146 -14.052737 -3.242676 6e-06 -18.78727 2e-06 -0.429712 -8.456043 2.555505 0.0 -0.0 -0.0 -15.923532 -20.094482 -5.473587 30.419207 -7.190823 1.735925 1e-06 -8.162925 -2e-06 -1.861902 -22.861467 -6.167941 0.0 -3e-06 -0.0 -177.243362 -4.640131 -1.048599 10.994502 -0.044615 -0.066836 -80.431007 -5.650756 -5.337498 -5.735101 1.543496 2.115023 -0.999999 0.0 -0.0 4.307822 -1.377839 1.570119 9.005012 -0.120678 0.103422 -80.009361 -10.157063 -5.256543 -5.163438 0.828259 1.711988 -1.000001 1e-06 -0.0 
0.0 0.0 0.0 0.0 -0.0 0.0 -1.215967 99.87561 -1.807996 89.507629 2.046329 90.2976 -3.430137 0.201906 -0.28167 -12.292425 -0.441794 -0.440044 16.651777 0.526143 -2.554754 15.733037 -4.912207 2.82666 -2.544307 -0.799562 -1.342996 -32.687527 1.136292 -3.408193 6e-06 0.0 -0.0 0.012896 0.033591 0.019916 0.15516 0.015169 0.015773 0.1511 0.04924 0.032103 -121.123283 -67.712563 139.76091 36.369793 -50.209423 22.244537 46.329784 1.173796 0.266599 -10.046422 8.055483 14.687055 17.636625 -26.322725 52.411175 -19.466652 -14.395598 29.410378 -0.0 -8.774819 -1e-06 15.690222 -17.960176 6.175651 -0.609776 -1.795652 -3.889323 -4.807091 -11.046809 -2.93785 3e-06 -20.976015 2e-06 -5.019974 -25.033556 -4.031876 6e-06 0.0 0.0 -10.634533 -5.686969 -3.565585 10.573272 -17.922947 -3.113901 1e-06 -13.821206 2e-06 -0.501782 -31.181501 -4.027011 -11.155914 -59.22765 7.102946 -13.982712 -7.150197 -2.875039 13.772727 -8.401488 -3.21824 0.34773 -34.21154 0.771659 -0.963031 -17.73337 2.62102 -0.0 -0.0 -1e-06 -17.346416 -20.095207 -4.201777 21.757555 -1.638375 3.866428 2e-06 -6.338821 0.0 -1.69759 -22.59174 -6.194004 -0.0 -3e-06 -1e-06 98.119476 -80.506737 96.420715 32.699837 -72.21093 7.2368 43.801025 -0.009529 0.168015 -3.960142 0.943974 21.531797 22.182121 -20.375895 49.933304 -16.701813 -16.74353 28.47653 -3e-06 -12.690603 -1e-06 16.162241 -18.029596 2.584972 -0.10592 -1.513857 -4.275882 -5.03904 -5.61287 -2.953558 3e-06 -11.020523 -1e-06 -6.111296 -15.89533 -3.840468 -0.0 1e-06 -1e-06 -10.28337 -5.680288 -4.341836 11.028294 -11.302406 -2.372634 -1.384269 -14.238581 -6.32012 -0.625442 -26.924187 -3.827598 -4.307368 -50.139145 -4.106762 -13.708524 -7.363474 -3.720941 18.141148 -14.052739 -3.242673 6e-06 -18.787271 1e-06 -0.429711 -8.456042 2.555506 1e-06 -1e-06 1e-06 -15.923534 -20.094482 -5.473587 30.41921 -7.190827 1.735927 1e-06 -8.162922 -1e-06 -1.861902 -22.861467 -6.167941 -0.0 -5e-06 0.0 -176.97049 -4.628043 -0.958283 10.682833 -0.034656 -0.040706 -80.346771 -5.822898 -5.381658 -5.779689 1.574472 2.123365 -0.999999 -0.0 -0.0 4.559069 -1.351456 1.641587 8.736429 -0.125771 0.140211 -79.928665 -10.177446 -5.228703 -5.170927 0.826909 1.717276 -1.000003 0.0 -0.0 
0.0 0.0 0.0 0.0 -0.0 0.0 -1.226469 99.867126 -1.734533 89.501328 2.119546 90.26326 -3.449693 0.224671 -0.321754 -12.307577 -0.396294 -0.394238 16.676886 0.47465 -2.535493 15.86347 -4.99966 2.85366 -2.589698 -0.748671 -1.349177 -32.424076 1.017346 -3.331946 7e-06 0.0 0.0 0.006525 0.031476 0.015957 0.137748 0.009784 0.013846 0.136939 0.050173 0.02597 -120.331268 -67.25882 139.143707 35.346241 -49.611607 22.148535 50.557915 1.286956 0.235396 -9.286671 9.184551 17.758801 17.636629 -26.322727 52.411201 -19.466661 -14.395596 29.410395 0.0 -8.774822 -3e-06 15.661347 -18.029541 6.166629 -0.609776 -1.795652 -3.889326 -4.807091 -11.046809 -2.937853 5e-06 -20.976017 -1e-06 -5.01997 -25.03356 -4.031882 6e-06 0.0 -0.0 -10.634533 -5.686971 -3.56559 10.573272 -17.922953 -3.113903 3e-06 -13.821209 1e-06 -0.501776 -31.181505 -4.027017 -11.14264 -59.029041 7.10176 -13.982715 -7.150199 -2.875043 13.772729 -8.40149 -3.218244 0.347734 -34.211555 0.771652 -0.96303 -17.73337 2.621017 0.0 1e-06 1e-06 -17.346416 -20.095217 -4.201783 21.757559 -1.638374 3.866428 2e-06 -6.338823 0.0 -1.69759 -22.591745 -6.19401 1e-06 -4e-06 -2e-06 98.263855 -80.27063 96.688652 28.767105 -71.700279 10.195745 49.309399 0.157443 0.154806 -5.138743 0.56185 23.03438 22.182116 -20.375889 49.933311 -16.701815 -16.743528 28.47653 -3e-06 -12.690603 -1e-06 16.097464 -18.007395 2.636035 -0.105919 -1.513856 -4.275884 -5.039042 -5.612872 -2.953553 6e-06 -11.020523 -4e-06 -6.111298 -15.895332 -3.840473 0.0 -1e-06 -0.0 -10.28337 -5.680288 -4.341837 11.028292 -11.302406 -2.372634 -1.38427 -14.238581 -6.320123 -0.625438 -26.924189 -3.827601 -4.353451 -50.115917 -4.07391 -13.708526 -7.363478 -3.72094 18.14115 -14.052739 -3.242675 6e-06 -18.78727 -2e-06 -0.429711 -8.456043 2.555504 1e-06 -0.0 -0.0 -15.923536 -20.094484 -5.473585 30.41921 -7.190824 1.735931 2e-06 -8.162924 -1e-06 -1.861905 -22.861469 -6.167943 1e-06 -4e-06 -0.0 -176.788177 -4.623311 -0.848853 10.588896 -0.035468 -0.029914 -80.35733 -6.020096 -5.389127 -5.792285 1.595985 2.128837 -0.999999 -0.0 -0.0 4.706688 -1.33532 1.73049 8.700177 -0.121628 0.167827 -79.952171 -10.240436 -5.245643 -5.134046 0.842918 1.725445 -1.000002 -0.0 0.0 
0.0 0.0 0.0 0.0 -0.0 0.0 -1.242574 99.858818 -1.667268 89.483612 2.174764 90.209839 -3.461919 0.210791 -0.351194 -12.341475 -0.351443 -0.358957 16.702843 0.465479 -2.526679 16.044678 -5.066899 2.87471 -2.631512 -0.723447 -1.265269 -32.115822 0.913992 -3.220746 5e-06 -0.0 -0.0 0.002351 0.02945 0.007504 0.116393 0.005435 0.007414 0.11885 0.05016 0.015079 -119.187485 -66.813026 138.170959 34.187153 -48.864697 22.20495 55.858513 1.345257 0.215033 -8.123686 10.246024 21.335529 17.636631 -26.322729 52.411201 -19.466665 -14.395597 29.410395 0.0 -8.774822 -2e-06 15.630942 -18.100576 6.171228 -0.609776 -1.795654 -3.88933 -4.80709 -11.046814 -2.937852 5e-06 -20.976019 -1e-06 -5.019969 -25.033562 -4.031882 6e-06 -0.0 -1e-06 -10.634536 -5.686973 -3.565589 10.573275 -17.922955 -3.113901 3e-06 -13.821213 1e-06 -0.501779 -31.181507 -4.027016 -11.115452 -58.848965 7.095235 -13.982714 -7.150201 -2.875042 13.772731 -8.401493 -3.218241 0.347735 -34.211555 0.771652 -0.963026 -17.73337 2.621019 -2e-06 2e-06 1e-06 -17.34642 -20.095221 -4.201784 21.757561 -1.638378 3.866429 1e-06 -6.338825 -2e-06 -1.697587 -22.591751 -6.194011 1e-06 -4e-06 -3e-06 98.224129 -79.998001 97.107643 24.346157 -70.944908 13.545862 56.079777 0.290712 0.128556 -6.510673 -0.01481 24.917965 22.182117 -20.375895 49.933311 -16.701815 -16.743528 28.476532 -3e-06 -12.690604 -3e-06 15.977406 -17.97752 2.710643 -0.105921 -1.513857 -4.275882 -5.039042 -5.612872 -2.953557 2e-06 -11.020525 -2e-06 -6.111297 -15.895334 -3.840473 -0.0 0.0 0.0 -10.28337 -5.680288 -4.34184 11.028293 -11.302404 -2.372631 -1.384269 -14.238581 -6.320122 -0.625441 -26.924189 -3.827598 -4.404953 -49.932507 -4.029717 -13.708526 -7.363478 -3.720939 18.141151 -14.05274 -3.242673 6e-06 -18.787271 -2e-06 -0.429711 -8.456045 2.555502 0.0 0.0 -0.0 -15.923536 -20.094484 -5.473589 30.419214 -7.19083 1.735925 3e-06 -8.162922 -2e-06 -1.861902 -22.861469 -6.167942 -1e-06 -2e-06 -1e-06 -176.647308 -4.633165 -0.783102 10.536585 -0.043924 -0.029744 -80.379044 -6.210887 -5.423192 -5.80801 1.596715 2.128898 -0.999999 0.0 0.0 4.829286 -1.31236 1.801759 8.659474 -0.117518 0.177872 -79.967789 -10.266363 -5.289044 -5.127003 0.860415 1.732546 -1.000001 -0.0 0.0 
0.0 0.0 0.0 0.0 -0.0 0.0 -1.257322 99.854683 -1.614148 89.459145 2.198833 90.163597 -3.481744 0.170241 -0.352705 -12.380229 -0.324564 -0.352824 16.712105 0.477926 -2.531114 16.278326 -5.045867 2.908678 -2.653432 -0.718695 -1.126135 -31.808294 0.847317 -3.07696 6e-06 -0.0 -0.0 0.002505 0.027752 0.001839 0.100926 0.006598 0.00483 0.107892 0.045171 0.005887 -117.809143 -66.426941 136.954971 33.183575 -47.810139 22.384171 62.031887 1.326497 0.200475 -6.773659 10.94861 25.062111 17.636623 -26.322725 52.411194 -19.466665 -14.3956 29.410393 -0.0 -8.774822 -1e-06 15.615946 -18.161741 6.181336 -0.609775 -1.795651 -3.889327 -4.80709 -11.046814 -2.937848 5e-06 -20.976015 -1e-06 -5.019971 -25.033554 -4.03188 5e-06 -1e-06 2e-06 -10.634533 -5.686965 -3.565587 10.573276 -17.922951 -3.113904 3e-06 -13.821209 0.0 -0.501777 -31.181505 -4.027017 -11.106294 -58.721874 7.115016 -13.982712 -7.150194 -2.875041 13.772729 -8.401489 -3.218241 0.347735 -34.211544 0.771652 -0.963032 -17.73337 2.621019 -1e-06 0.0 -0.0 -17.34642 -20.095217 -4.20178 21.757563 -1.638374 3.866426 1e-06 -6.338823 1e-06 -1.697591 -22.591745 -6.194007 2e-06 -4e-06 -2e-06 98.265953 -79.695061 97.373871 20.395817 -69.988434 16.4132 63.537624 0.301552 0.081922 -7.941817 -0.792524 27.109682 22.182112 -20.375883 49.933311 -16.701811 -16.74353 28.476528 -3e-06 -12.6906 0.0 15.866339 -17.974369 2.780854 -0.105918 -1.513856 -4.275883 -5.039041 -5.61287 -2.953554 2e-06 -11.020523 -2e-06 -6.111296 -15.89533 -3.840471 -1e-06 1e-06 0.0 -10.283369 -5.680286 -4.34184 11.028291 -11.302402 -2.372633 -1.384269 -14.238577 -6.320119 -0.625439 -26.924183 -3.827601 -4.440848 -49.674328 -3.997466 -13.708519 -7.363472 -3.72094 18.141146 -14.052738 -3.242673 6e-06 -18.787266 -2e-06 -0.42971 -8.456041 2.555502 1e-06 0.0 0.0 -15.923532 -20.094482 -5.473583 30.419207 -7.190823 1.735926 0.0 -8.162921 -3e-06 -1.861904 -22.861464 -6.16794 -2e-06 -2e-06 -3e-06 -176.557053 -4.650878 -0.732885 10.497424 -0.056638 -0.02936 -80.391991 -6.390267 -5.476327 -5.827632 1.58825 2.126074 -0.999997 0.0 0.0 4.935291 -1.282089 1.828955 8.568974 -0.115991 0.181949 -79.954552 -10.243213 -5.333345 -5.139255 0.871072 1.737345 -1.000002 0.0 -0.0 
